<svg width="27" height="27" viewBox="0 0 27 27" fill="none" xmlns="http://www.w3.org/2000/svg">
<path d="M9.37793 20.375H4.70899C2.97865 20.375 2.11349 20.375 1.93145 20.2407C1.72695 20.0897 1.67698 20.0006 1.65483 19.7475C1.63512 19.5221 2.16538 18.6543 3.22592 16.9191C4.3209 15.1273 5.25067 12.5185 5.25067 8.825C5.25067 6.78284 6.11986 4.82431 7.66703 3.38028C9.21421 1.93625 11.3126 1.125 13.5007 1.125C15.6887 1.125 17.7871 1.93625 19.3342 3.38028C20.8815 4.82431 21.7507 6.78284 21.7507 8.825C21.7507 12.5185 22.6804 15.1273 23.7755 16.9191C24.8359 18.6543 25.3662 19.5221 25.3466 19.7475C25.3244 20.0006 25.2744 20.0897 25.0699 20.2407C24.8879 20.375 24.0227 20.375 22.2924 20.375H17.6257M9.37793 20.375L9.37567 21.75C9.37567 24.0282 11.2226 25.875 13.5007 25.875C15.7789 25.875 17.6257 24.0282 17.6257 21.75V20.375M9.37793 20.375H17.6257" stroke="black" stroke-width="2" stroke-linecap="round" stroke-linejoin="round"/>
</svg>
