<svg width="42" height="40" viewBox="0 0 42 40" fill="none" xmlns="http://www.w3.org/2000/svg">
<path fill-rule="evenodd" clip-rule="evenodd" d="M19.625 30H22.375V32.5H19.625V30ZM19.625 35H22.375C23.893 35 25.125 33.88 25.125 32.5V30C25.125 28.62 23.893 27.5 22.375 27.5H19.625C18.107 27.5 16.875 28.62 16.875 30V32.5C16.875 33.88 18.107 35 19.625 35ZM8.625 30H11.375V32.5H8.625V30ZM8.625 35H11.375C12.893 35 14.125 33.88 14.125 32.5V30C14.125 28.62 12.893 27.5 11.375 27.5H8.625C7.107 27.5 5.875 28.62 5.875 30V32.5C5.875 33.88 7.107 35 8.625 35ZM19.625 20H22.375V22.5H19.625V20ZM19.625 25H22.375C23.893 25 25.125 23.88 25.125 22.5V20C25.125 18.62 23.893 17.5 22.375 17.5H19.625C18.107 17.5 16.875 18.62 16.875 20V22.5C16.875 23.88 18.107 25 19.625 25ZM8.625 20H11.375V22.5H8.625V20ZM8.625 25H11.375C12.893 25 14.125 23.88 14.125 22.5V20C14.125 18.62 12.893 17.5 11.375 17.5H8.625C7.107 17.5 5.875 18.62 5.875 20V22.5C5.875 23.88 7.107 25 8.625 25ZM38.875 10H3.125V7.5C3.125 6.12 4.357 5 5.875 5H11.375V6.25C11.375 6.94125 11.9896 7.5 12.75 7.5C13.5104 7.5 14.125 6.94125 14.125 6.25V5H27.875V6.25C27.875 6.94125 28.4896 7.5 29.25 7.5C30.0104 7.5 30.625 6.94125 30.625 6.25V5H36.125C37.643 5 38.875 6.12 38.875 7.5V10ZM38.875 35C38.875 36.38 37.643 37.5 36.125 37.5H5.875C4.357 37.5 3.125 36.38 3.125 35V12.5H38.875V35ZM36.125 2.5H30.625V1.25C30.625 0.56 30.0104 0 29.25 0C28.4896 0 27.875 0.56 27.875 1.25V2.5H14.125V1.25C14.125 0.56 13.5104 0 12.75 0C11.9896 0 11.375 0.56 11.375 1.25V2.5H5.875C2.83762 2.5 0.375 4.73875 0.375 7.5V35C0.375 37.7612 2.83762 40 5.875 40H36.125C39.1624 40 41.625 37.7612 41.625 35V7.5C41.625 4.73875 39.1624 2.5 36.125 2.5ZM30.625 20H33.375V22.5H30.625V20ZM30.625 25H33.375C34.893 25 36.125 23.88 36.125 22.5V20C36.125 18.62 34.893 17.5 33.375 17.5H30.625C29.107 17.5 27.875 18.62 27.875 20V22.5C27.875 23.88 29.107 25 30.625 25ZM30.625 30H33.375V32.5H30.625V30ZM30.625 35H33.375C34.893 35 36.125 33.88 36.125 32.5V30C36.125 28.62 34.893 27.5 33.375 27.5H30.625C29.107 27.5 27.875 28.62 27.875 30V32.5C27.875 33.88 29.107 35 30.625 35Z" fill="#423CD2"/>
</svg>
