<svg width="137" height="31" viewBox="0 0 137 31" fill="none" xmlns="http://www.w3.org/2000/svg">
<path d="M22.2273 9.45455H15.8182C15.7727 8.92424 15.6515 8.44318 15.4545 8.01136C15.2652 7.57955 15 7.20833 14.6591 6.89773C14.3258 6.57954 13.9205 6.33712 13.4432 6.17045C12.9659 5.99621 12.4242 5.90909 11.8182 5.90909C10.7576 5.90909 9.85985 6.16667 9.125 6.68182C8.39773 7.19697 7.8447 7.93561 7.46591 8.89773C7.0947 9.85985 6.90909 11.0152 6.90909 12.3636C6.90909 13.7879 7.09848 14.9811 7.47727 15.9432C7.86364 16.8977 8.42045 17.6174 9.14773 18.1023C9.875 18.5795 10.75 18.8182 11.7727 18.8182C12.3561 18.8182 12.8788 18.7462 13.3409 18.6023C13.803 18.4508 14.2045 18.2348 14.5455 17.9545C14.8864 17.6742 15.1629 17.3371 15.375 16.9432C15.5947 16.5417 15.7424 16.0909 15.8182 15.5909L22.2273 15.6364C22.1515 16.6212 21.875 17.625 21.3977 18.6477C20.9205 19.6629 20.2424 20.6023 19.3636 21.4659C18.4924 22.322 17.4129 23.0114 16.125 23.5341C14.8371 24.0568 13.3409 24.3182 11.6364 24.3182C9.5 24.3182 7.58333 23.8598 5.88636 22.9432C4.19697 22.0265 2.85985 20.678 1.875 18.8977C0.897727 17.1174 0.409091 14.9394 0.409091 12.3636C0.409091 9.77273 0.909091 7.59091 1.90909 5.81818C2.90909 4.03788 4.25758 2.69318 5.95455 1.78409C7.65152 0.867423 9.54545 0.40909 11.6364 0.40909C13.1061 0.40909 14.4583 0.609847 15.6932 1.01136C16.928 1.41288 18.0114 2 18.9432 2.77273C19.875 3.53788 20.625 4.48106 21.1932 5.60227C21.7614 6.72348 22.1061 8.00758 22.2273 9.45455ZM30.0483 24.2727C28.9347 24.2727 27.9498 24.0909 27.0938 23.7273C26.2453 23.3561 25.5786 22.7955 25.0938 22.0455C24.6089 21.2955 24.3665 20.3409 24.3665 19.1818C24.3665 18.2273 24.5294 17.4129 24.8551 16.7386C25.1809 16.0568 25.6354 15.5 26.2188 15.0682C26.8021 14.6364 27.4801 14.3068 28.2528 14.0795C29.0331 13.8523 29.8741 13.7045 30.7756 13.6364C31.7528 13.5606 32.5369 13.4697 33.1278 13.3636C33.7263 13.25 34.1581 13.0947 34.4233 12.8977C34.6884 12.6932 34.821 12.4242 34.821 12.0909V12.0455C34.821 11.5909 34.6468 11.2424 34.2983 11C33.9498 10.7576 33.5028 10.6364 32.9574 10.6364C32.3589 10.6364 31.8703 10.7689 31.4915 11.0341C31.1203 11.2917 30.8968 11.6894 30.821 12.2273H25.0483C25.1241 11.1667 25.4612 10.1894 26.0597 9.29545C26.6657 8.39394 27.5483 7.67424 28.7074 7.13636C29.8665 6.59091 31.3134 6.31818 33.0483 6.31818C34.2983 6.31818 35.4195 6.46591 36.4119 6.76136C37.4044 7.04924 38.2491 7.45455 38.946 7.97727C39.643 8.49242 40.1733 9.09848 40.5369 9.79545C40.9081 10.4848 41.0938 11.2348 41.0938 12.0455V24H35.2301V21.5455H35.0938C34.7453 22.197 34.321 22.7235 33.821 23.125C33.3286 23.5265 32.7642 23.8182 32.1278 24C31.4991 24.1818 30.8059 24.2727 30.0483 24.2727ZM32.0938 20.3182C32.571 20.3182 33.018 20.2197 33.4347 20.0227C33.8589 19.8258 34.2036 19.5417 34.4688 19.1705C34.7339 18.7992 34.8665 18.3485 34.8665 17.8182V16.3636C34.6998 16.4318 34.5218 16.4962 34.3324 16.5568C34.1506 16.6174 33.9536 16.6742 33.7415 16.7273C33.5369 16.7803 33.3172 16.8295 33.0824 16.875C32.8551 16.9205 32.6165 16.9621 32.3665 17C31.8816 17.0758 31.4839 17.2008 31.1733 17.375C30.8703 17.5417 30.643 17.75 30.4915 18C30.3475 18.2424 30.2756 18.5152 30.2756 18.8182C30.2756 19.303 30.446 19.6742 30.7869 19.9318C31.1278 20.1894 31.5634 20.3182 32.0938 20.3182ZM54.5 6.54545V11.0909H43V6.54545H54.5ZM45.2273 2.36364H51.5V18.3864C51.5 18.6288 51.5417 18.8333 51.625 19C51.7083 19.1591 51.8371 19.2803 52.0114 19.3636C52.1856 19.4394 52.4091 19.4773 52.6818 19.4773C52.8712 19.4773 53.0909 19.4545 53.3409 19.4091C53.5985 19.3636 53.7879 19.3258 53.9091 19.2955L54.8182 23.7045C54.5379 23.7879 54.1364 23.8902 53.6136 24.0114C53.0985 24.1326 52.4848 24.2121 51.7727 24.25C50.3333 24.3258 49.125 24.178 48.1477 23.8068C47.1705 23.428 46.4356 22.8333 45.9432 22.0227C45.4508 21.2121 45.2121 20.197 45.2273 18.9773V2.36364ZM69.5142 8C69.4536 7.24242 69.1695 6.65151 68.6619 6.22727C68.1619 5.80303 67.4006 5.59091 66.3778 5.59091C65.7263 5.59091 65.1922 5.67045 64.7756 5.82954C64.3665 5.98106 64.0634 6.18939 63.8665 6.45454C63.6695 6.7197 63.5672 7.02273 63.5597 7.36364C63.5445 7.64394 63.5938 7.89773 63.7074 8.125C63.8286 8.3447 64.018 8.54545 64.2756 8.72727C64.5331 8.90151 64.8627 9.06061 65.2642 9.20455C65.6657 9.34848 66.143 9.47727 66.696 9.59091L68.6051 10C69.893 10.2727 70.9953 10.6326 71.9119 11.0795C72.8286 11.5265 73.5786 12.053 74.1619 12.6591C74.7453 13.2576 75.1733 13.9318 75.446 14.6818C75.7263 15.4318 75.8703 16.25 75.8778 17.1364C75.8703 18.6667 75.4877 19.9621 74.7301 21.0227C73.9725 22.0833 72.8892 22.8902 71.4801 23.4432C70.0786 23.9962 68.393 24.2727 66.4233 24.2727C64.4006 24.2727 62.6354 23.9735 61.1278 23.375C59.6278 22.7765 58.4612 21.8561 57.6278 20.6136C56.8021 19.3636 56.3854 17.7652 56.3778 15.8182H62.3778C62.4157 16.5303 62.5938 17.1288 62.9119 17.6136C63.2301 18.0985 63.6771 18.4659 64.2528 18.7159C64.8362 18.9659 65.5294 19.0909 66.3324 19.0909C67.0066 19.0909 67.571 19.0076 68.0256 18.8409C68.4801 18.6742 68.8248 18.4432 69.0597 18.1477C69.2945 17.8523 69.4157 17.5152 69.4233 17.1364C69.4157 16.7803 69.2983 16.4697 69.071 16.2045C68.8513 15.9318 68.4877 15.6894 67.9801 15.4773C67.4725 15.2576 66.7869 15.053 65.9233 14.8636L63.6051 14.3636C61.5445 13.9167 59.9195 13.1705 58.7301 12.125C57.5483 11.072 56.9612 9.63636 56.9688 7.81818C56.9612 6.34091 57.3551 5.04924 58.1506 3.94318C58.9536 2.82954 60.0634 1.96212 61.4801 1.34091C62.9044 0.719696 64.5369 0.40909 66.3778 0.40909C68.2566 0.40909 69.8816 0.723484 71.2528 1.35227C72.6241 1.98106 73.6809 2.86742 74.4233 4.01136C75.1733 5.14773 75.5521 6.47727 75.5597 8H69.5142ZM84.6449 14.1818V24H78.3722V6.54545H84.3267V9.86364H84.5085C84.8873 8.75758 85.554 7.89015 86.5085 7.26136C87.4706 6.63258 88.5919 6.31818 89.8722 6.31818C91.107 6.31818 92.179 6.60227 93.0881 7.17045C94.0047 7.73106 94.7131 8.50379 95.2131 9.48864C95.7206 10.4735 95.9706 11.5985 95.9631 12.8636V24H89.6903V14.1818C89.6979 13.3182 89.4782 12.6402 89.0312 12.1477C88.5919 11.6553 87.9782 11.4091 87.1903 11.4091C86.6752 11.4091 86.2244 11.5227 85.8381 11.75C85.4593 11.9697 85.1676 12.2879 84.9631 12.7045C84.7585 13.1136 84.6525 13.6061 84.6449 14.1818ZM103.923 24.2727C102.81 24.2727 101.825 24.0909 100.969 23.7273C100.12 23.3561 99.4536 22.7955 98.9688 22.0455C98.4839 21.2955 98.2415 20.3409 98.2415 19.1818C98.2415 18.2273 98.4044 17.4129 98.7301 16.7386C99.0559 16.0568 99.5104 15.5 100.094 15.0682C100.677 14.6364 101.355 14.3068 102.128 14.0795C102.908 13.8523 103.749 13.7045 104.651 13.6364C105.628 13.5606 106.412 13.4697 107.003 13.3636C107.601 13.25 108.033 13.0947 108.298 12.8977C108.563 12.6932 108.696 12.4242 108.696 12.0909V12.0455C108.696 11.5909 108.522 11.2424 108.173 11C107.825 10.7576 107.378 10.6364 106.832 10.6364C106.234 10.6364 105.745 10.7689 105.366 11.0341C104.995 11.2917 104.772 11.6894 104.696 12.2273H98.9233C98.9991 11.1667 99.3362 10.1894 99.9347 9.29545C100.541 8.39394 101.423 7.67424 102.582 7.13636C103.741 6.59091 105.188 6.31818 106.923 6.31818C108.173 6.31818 109.295 6.46591 110.287 6.76136C111.279 7.04924 112.124 7.45455 112.821 7.97727C113.518 8.49242 114.048 9.09848 114.412 9.79545C114.783 10.4848 114.969 11.2348 114.969 12.0455V24H109.105V21.5455H108.969C108.62 22.197 108.196 22.7235 107.696 23.125C107.204 23.5265 106.639 23.8182 106.003 24C105.374 24.1818 104.681 24.2727 103.923 24.2727ZM105.969 20.3182C106.446 20.3182 106.893 20.2197 107.31 20.0227C107.734 19.8258 108.079 19.5417 108.344 19.1705C108.609 18.7992 108.741 18.3485 108.741 17.8182V16.3636C108.575 16.4318 108.397 16.4962 108.207 16.5568C108.026 16.6174 107.829 16.6742 107.616 16.7273C107.412 16.7803 107.192 16.8295 106.957 16.875C106.73 16.9205 106.491 16.9621 106.241 17C105.757 17.0758 105.359 17.2008 105.048 17.375C104.745 17.5417 104.518 17.75 104.366 18C104.223 18.2424 104.151 18.5152 104.151 18.8182C104.151 19.303 104.321 19.6742 104.662 19.9318C105.003 20.1894 105.438 20.3182 105.969 20.3182ZM117.966 30.5455V6.54545H124.193V9.59091H124.33C124.557 9 124.89 8.45833 125.33 7.96591C125.769 7.46591 126.314 7.06818 126.966 6.77273C127.617 6.4697 128.375 6.31818 129.239 6.31818C130.39 6.31818 131.485 6.625 132.523 7.23864C133.568 7.85227 134.417 8.81818 135.068 10.1364C135.727 11.4545 136.057 13.1667 136.057 15.2727C136.057 17.2879 135.742 18.9583 135.114 20.2841C134.492 21.6098 133.659 22.5985 132.614 23.25C131.576 23.9015 130.436 24.2273 129.193 24.2273C128.375 24.2273 127.644 24.0947 127 23.8295C126.364 23.5568 125.818 23.1894 125.364 22.7273C124.917 22.2576 124.572 21.7273 124.33 21.1364H124.239V30.5455H117.966ZM124.102 15.2727C124.102 16.1212 124.212 16.8561 124.432 17.4773C124.659 18.0909 124.977 18.5682 125.386 18.9091C125.803 19.2424 126.299 19.4091 126.875 19.4091C127.451 19.4091 127.939 19.2462 128.341 18.9205C128.75 18.5871 129.061 18.1136 129.273 17.5C129.492 16.8788 129.602 16.1364 129.602 15.2727C129.602 14.4091 129.492 13.6705 129.273 13.0568C129.061 12.4356 128.75 11.9621 128.341 11.6364C127.939 11.303 127.451 11.1364 126.875 11.1364C126.299 11.1364 125.803 11.303 125.386 11.6364C124.977 11.9621 124.659 12.4356 124.432 13.0568C124.212 13.6705 124.102 14.4091 124.102 15.2727Z" fill="url(#paint0_linear_144_727)"/>
<defs>
<linearGradient id="paint0_linear_144_727" x1="79" y1="-7" x2="79.0909" y2="13.0012" gradientUnits="userSpaceOnUse">
<stop/>
<stop offset="1" stop-color="#4032D7"/>
</linearGradient>
</defs>
</svg>
