<svg width="15" height="17" viewBox="0 0 15 17" fill="none" xmlns="http://www.w3.org/2000/svg">
<path d="M1 7.10748C1 3.73441 3.91015 1 7.5 1C11.0899 1 14 3.73441 14 7.10748C14 10.4541 11.9254 14.3593 8.68861 15.7558C7.93412 16.0814 7.06588 16.0814 6.31139 15.7558C3.07457 14.3593 1 10.4541 1 7.10748Z" stroke="black" stroke-width="1.5"/>
<path d="M7.5 9.25001C8.84619 9.25001 9.9375 8.24264 9.9375 7C9.9375 5.75736 8.84619 4.75 7.5 4.75C6.15381 4.75 5.0625 5.75736 5.0625 7C5.0625 8.24264 6.15381 9.25001 7.5 9.25001Z" stroke="black" stroke-width="1.5"/>
</svg>
