<svg width="16" height="14" viewBox="0 0 16 14" fill="none" xmlns="http://www.w3.org/2000/svg">
<path d="M2.87682 0.050415C1.33997 0.050415 0.790039 0.720883 0.790039 2.18239V5.68544C0.790039 7.14695 1.33997 7.81745 2.87682 7.81745H13.1223C14.6592 7.81745 15.2091 7.14695 15.2091 5.68544V2.18239C15.2091 0.720883 14.6592 0.050415 13.1223 0.050415H2.87682ZM2.00292 5.72315V2.14471C2.00292 1.47425 2.22139 1.18043 2.88434 1.18043H13.1148C13.7853 1.18043 13.9962 1.47425 13.9962 2.14471V5.72315C13.9962 6.39361 13.7853 6.68743 13.1148 6.68743H2.88434C2.22139 6.68743 2.00292 6.39361 2.00292 5.72315ZM2.56792 10.1829C2.56792 9.73847 2.20632 9.36934 1.75432 9.36934C1.3023 9.36934 0.940693 9.73847 0.940693 10.1829C0.940693 10.635 1.3023 10.989 1.75432 10.989C2.20632 10.989 2.56792 10.635 2.56792 10.1829ZM14.9454 10.1829C14.9454 9.85148 14.6668 9.60289 14.2976 9.60289H4.16504C3.78836 9.60289 3.51717 9.85148 3.51717 10.1829C3.51717 10.5144 3.78836 10.7706 4.16504 10.7706H14.2976C14.6668 10.7706 14.9454 10.5144 14.9454 10.1829ZM2.56792 13.1361C2.56792 12.6916 2.20632 12.3149 1.75432 12.3149C1.3023 12.3149 0.940693 12.6916 0.940693 13.1361C0.940693 13.5881 1.3023 13.9497 1.75432 13.9497C2.20632 13.9497 2.56792 13.5881 2.56792 13.1361ZM14.9454 13.1361C14.9454 12.8046 14.6668 12.556 14.2976 12.556H4.16504C3.78836 12.556 3.51717 12.8046 3.51717 13.1361C3.51717 13.4676 3.78836 13.7237 4.16504 13.7237H14.2976C14.6668 13.7237 14.9454 13.4676 14.9454 13.1361Z" fill="#BCBCBC"/>
</svg>
