<svg width="23" height="26" viewBox="0 0 23 26" fill="none" xmlns="http://www.w3.org/2000/svg">
<path d="M22.003 24.7514C21.6663 25.1129 21.2111 25.3159 20.7366 25.3159C20.2621 25.3159 19.8069 25.1129 19.4703 24.7514L13.983 18.8166C12.1208 20.1511 9.86665 20.69 7.6579 20.3285C5.44915 19.9671 3.44327 18.7312 2.02944 16.8605C0.615614 14.9899 -0.105356 12.618 0.00641047 10.2049C0.118177 7.79189 1.05471 5.50977 2.63431 3.80134C4.21391 2.09291 6.32395 1.08 8.55504 0.959114C10.7861 0.838232 12.9792 1.618 14.7088 3.14714C16.4383 4.67627 17.581 6.84574 17.9152 9.23464C18.2494 11.6235 17.7512 14.0615 16.5173 16.0756L22.003 22.0104C22.3377 22.3746 22.5257 22.8673 22.5257 23.3809C22.5257 23.8945 22.3377 24.3872 22.003 24.7514ZM11.7218 17.9286C13.3939 17.1977 14.7543 15.8193 15.5376 14.0623C16.3209 12.3053 16.471 10.2957 15.9585 8.42553C15.4461 6.55535 14.3079 4.95869 12.7659 3.94701C11.224 2.93533 9.38888 2.58118 7.61857 2.95364C5.84826 3.3261 4.26972 4.39845 3.19086 5.96153C2.112 7.52461 1.61019 9.46631 1.78332 11.4079C1.95645 13.3495 2.7921 15.1516 4.12727 16.4629C5.46244 17.7742 7.20137 18.5005 9.00486 18.5002C9.93567 18.5018 10.8595 18.3076 11.7218 17.9286Z" fill="black"/>
</svg>
