<svg width="31" height="30" viewBox="0 0 31 20" fill="none" xmlns="http://www.w3.org/2000/svg">
<g clip-path="url(#clip0_145_6050)">
<path d="M19.3066 0H1.80664C1.1157 0 0.556641 0.559062 0.556641 1.25V18.75C0.556641 19.4409 1.1157 20 1.80664 20H19.3066C19.9976 20 20.5566 19.4409 20.5566 18.75V1.25C20.5566 0.559062 19.9976 0 19.3066 0ZM19.9316 18.75C19.9316 19.095 19.6516 19.375 19.3066 19.375H1.80664C1.46164 19.375 1.18164 19.095 1.18164 18.75V17.8747L5.74508 13.3113C5.98914 13.0672 6.38477 13.0672 6.62883 13.3113C6.62883 13.3113 8.56539 15.2481 8.8632 15.5456C9.16102 15.8434 9.4507 15.8425 9.74727 15.5456C10.0438 15.2487 15.1132 10.1797 15.1132 10.1797C15.3573 9.93563 15.7529 9.93563 15.997 10.1797L19.9316 14.1147V18.75ZM19.9316 13.2306L16.4388 9.73781C15.9504 9.24937 15.1598 9.24937 14.6713 9.73781L9.30539 15.1038L7.0707 12.8694C6.58227 12.3809 5.79164 12.3809 5.3032 12.8694L1.18164 16.9906V1.25C1.18164 0.905 1.46164 0.625 1.80664 0.625H19.3066C19.6516 0.625 19.9316 0.905 19.9316 1.25V13.2306Z" fill="#9E9E9E"/>
<path d="M9.61883 5.31255H8.68195C8.67445 5.31255 8.6682 5.3163 8.6607 5.31693C8.60414 4.85787 8.4232 4.43818 8.15258 4.09068C8.1582 4.08568 8.16539 4.08412 8.17102 4.07849L8.83383 3.41568C8.95633 3.29349 8.95602 3.09599 8.83383 2.9738C8.71133 2.85162 8.51414 2.85162 8.39133 2.9738L7.72883 3.6363C7.7232 3.64193 7.72164 3.6488 7.71664 3.65474C7.36945 3.3838 6.94977 3.20287 6.49039 3.1463C6.49102 3.13943 6.49477 3.13255 6.49477 3.12537L6.49508 2.18787C6.49508 2.01505 6.35477 1.87537 6.18258 1.87537C6.00914 1.87537 5.86945 2.01474 5.86914 2.18818V3.12505C5.86914 3.13224 5.87289 3.13912 5.87352 3.14599C5.41414 3.20255 4.99445 3.38349 4.64695 3.65412C4.64195 3.64849 4.64039 3.6413 4.63508 3.63599L3.97227 2.97349C3.85008 2.85099 3.65258 2.8513 3.53039 2.97349C3.4082 3.09599 3.40789 3.29318 3.53039 3.41568L4.1932 4.07849C4.19852 4.0838 4.2057 4.08537 4.21133 4.09037C3.94039 4.43755 3.75945 4.85787 3.70289 5.31693C3.69539 5.3163 3.68883 5.31255 3.68164 5.31255H2.74414C2.57133 5.31255 2.43164 5.45224 2.43164 5.62505C2.43164 5.79787 2.57133 5.93755 2.74414 5.93755H3.68164C3.68883 5.93755 3.69539 5.9338 3.70258 5.93318C3.75914 6.39255 3.94008 6.81224 4.21102 7.15974C4.20508 7.16474 4.1982 7.1663 4.19258 7.17193L3.52977 7.83443C3.40727 7.95693 3.40727 8.15474 3.52977 8.2763C3.65227 8.39912 3.84914 8.39849 3.97227 8.27693L4.63477 7.61412C4.64039 7.60849 4.64195 7.6013 4.64695 7.59568C4.99414 7.8663 5.41383 8.04724 5.8732 8.1038C5.87289 8.11162 5.86914 8.11787 5.86914 8.12568L5.86883 9.06255C5.86883 9.23568 6.00883 9.37568 6.18133 9.37505C6.35445 9.37505 6.49383 9.23537 6.49477 9.06255L6.49445 8.12568C6.49445 8.11787 6.4907 8.11162 6.49008 8.10412C6.94914 8.04755 7.36883 7.86662 7.71633 7.59568C7.72133 7.60162 7.72289 7.6088 7.72852 7.61443L8.39102 8.27724C8.51352 8.40005 8.71133 8.39943 8.83289 8.27724C8.95539 8.15474 8.95508 7.95755 8.8332 7.83474L8.1707 7.17224C8.16508 7.16662 8.15789 7.16505 8.15195 7.16005C8.42289 6.81287 8.60383 6.39287 8.66039 5.9338C8.66789 5.93443 8.67414 5.93818 8.68164 5.93818H9.61914C9.79227 5.93818 9.93195 5.79818 9.93164 5.62568C9.93164 5.45255 9.79195 5.31318 9.61883 5.31255ZM6.18164 7.50005C5.14633 7.50005 4.30664 6.66037 4.30664 5.62505C4.30664 4.58974 5.14633 3.75005 6.18164 3.75005C7.21695 3.75005 8.05664 4.58974 8.05664 5.62505C8.05664 6.66037 7.21695 7.50005 6.18164 7.50005Z" fill="#9E9E9E"/>
</g>
<defs>
<clipPath id="clip0_145_6050">
<rect width="20" height="20" fill="white" transform="translate(0.556641)"/>
</clipPath>
</defs>
</svg>
