<svg width="43" height="42" viewBox="0 0 43 42" fill="none" xmlns="http://www.w3.org/2000/svg">
<path d="M21.3203 18.396C19.8375 18.396 18.6309 19.5848 18.6309 21.0455C18.6309 22.5063 19.8375 23.6951 21.3203 23.6951C22.8031 23.6951 24.0098 22.5063 24.0098 21.0455C24.0098 19.5848 22.8031 18.396 21.3203 18.396Z" fill="#747272"/>
<path d="M12.3555 18.396C10.8727 18.396 9.66602 19.5848 9.66602 21.0455C9.66602 22.5063 10.8727 23.6951 12.3555 23.6951C13.8383 23.6951 15.045 22.5063 15.045 21.0455C15.045 19.5848 13.8383 18.396 12.3555 18.396Z" fill="#747272"/>
<path d="M30.2852 18.396C28.8024 18.396 27.5957 19.5848 27.5957 21.0455C27.5957 22.5063 28.8024 23.6951 30.2852 23.6951C31.768 23.6951 32.9747 22.5063 32.9747 21.0455C32.9747 19.5848 31.768 18.396 30.2852 18.396Z" fill="#747272"/>
</svg>
